# xmcd
#
# Track frame offsets: 
#        150
#        14962
#        26033
#
# Disc length: 604 seconds
#
# Revision: 0
# Processed by: cddbd v1.5.2PL0 Copyright (c) Steve Scherf et al.
# Submitted via: ExactAudioCopy v0.95b4
#
DISCID=23025a03
DTITLE=Norah Jones - Thinking About You
DYEAR=2007
DGENRE=Jazz
TTITLE0=Thinking About You
TTITLE1=2 Men
TTITLE2=Wish I Could
EXTD=
EXTT0=
EXTT1=
EXTT2=
PLAYORDER=
